PathFileType	4	(X/Y/Z)	OpenSim_Sub05_CSStiffKnee_Accel.trc
DataRate	CameraRate	NumFrames	NumMarkers	Units	OrigDataRate	OrigDataStartFrame	OrigNumFrames
100	100	27	8	m	100	7031	11248
Frame#	Time	torso_imu_offset_imu	pelvis_imu_offset_imu	tibia_r_imu_offset_imu	femur_r_imu_offset_imu	tibia_l_imu_offset_imu	femur_l_imu_offset_imu	toes_r_imu_offset_imu	toes_l_imu_offset_imu
				X1	Y1	Z1	X2	Y2	Z2	X3	Y3	Z3	X4	Y4	Z4	X5	Y5	Z5	X6	Y6	Z6	X7	Y7	Z7	X8		Y8	Z8	

7031	70.30000000	9.13396491	0.15782754	5.36438758	8.82684975	0.25881036	1.93617665	12.50670758	-0.76277476	1.40108939	10.39000892	-4.82713666	2.58536102	7.96258843	-6.05545240	-1.88184749	7.06387758	-1.00490835	0.01353886	6.69041597	-1.12938849	8.09054733	13.63432445	1.84187248	-0.84314773
7032	70.31000000	8.94095497	0.07273320	5.35058955	8.52825671	0.17316057	2.01185389	12.93592038	-1.18650175	1.36925653	10.28742442	-4.59286918	3.74386999	8.71979784	-5.16848550	-1.35723006	6.88548581	-1.31897728	-0.14255015	6.76717264	-1.40615688	8.14753259	16.61243181	-2.66559362	-2.87614713
7033	70.32000000	8.71667272	-0.03574996	5.36545909	8.25597442	0.06783511	2.10851268	13.62508063	-2.06522547	1.58327061	10.32246953	-4.08726636	4.12811040	9.73754582	-5.67635010	0.23726970	7.10867329	-1.67061217	-0.32960037	6.59932395	-1.38304572	8.61384081	23.69360351	-1.70164772	-8.06619681
7034	70.33000000	8.46696416	-0.15590484	5.32841134	8.11576835	-0.12077038	2.53395803	14.55817233	-2.80725248	2.56105552	10.14201784	-3.70816689	4.13056817	10.54597661	-6.36036385	1.83087809	7.73292490	-1.64550754	-0.08979074	6.25431181	-1.50390447	9.27929967	21.70736246	-6.44873012	-4.67755110
7035	70.34000000	8.41427725	-0.24147291	5.46986229	8.23469755	-0.64485295	3.31744932	15.56364217	-3.11245983	3.37925954	9.86979186	-3.25210771	3.85592381	11.48776496	-8.15249962	0.98706679	9.36492849	-1.19625653	0.66212057	6.44153920	-1.41120326	9.96157537	25.41723919	-5.63463076	19.16186087
7036	70.35000000	8.64330520	-0.08480614	5.78906585	8.68161994	-1.49169205	4.15146855	16.27001999	-3.15335030	3.86864057	9.62899472	-3.01655388	3.26483211	11.79098653	-10.52892990	0.02298353	13.15669849	-0.86475921	1.67805756	6.91597065	-0.56699238	10.49705746	18.55980388	-4.43831901	25.05846322
7037	70.36000000	9.27598907	0.41317921	6.37445117	9.29428930	-2.43662332	4.57142033	16.94495662	-4.43555184	3.26849679	8.88051665	-3.40242576	3.37522901	14.34891727	-6.15056530	5.18709795	17.50559948	-0.46598989	3.07776905	7.33554794	-0.11020759	11.75962377	0.22921604	-1.50766045	14.09910820
7038	70.37000000	10.05372603	1.07804104	6.77182460	9.86952271	-3.29972939	4.34036224	17.59909713	-8.06171019	2.91381113	8.12702931	-2.68612647	5.19195745	14.16096749	0.21026388	8.24992384	17.32084328	0.23507902	3.79894722	9.12463845	-2.59469198	11.15499658	4.58551693	8.28695943	15.37194202
7039	70.38000000	9.93212219	1.76256338	6.54244868	10.39306686	-3.56166550	4.24905935	17.43217548	-10.40727172	2.52210604	8.18092998	-1.32705837	6.63740218	9.39769406	0.89174587	4.06593069	13.23112066	0.37323157	2.92821870	10.95835722	-3.10730422	11.03881291	8.31501432	2.95582544	13.99665270
7040	70.39000000	8.73177396	2.39490006	5.94147657	10.88570586	-3.03767038	4.09255061	15.94412483	-7.53642192	0.92594196	8.80733100	-1.53247030	5.09586410	7.94030383	-2.94677520	-0.69371855	10.14467188	0.38260572	1.81015561	14.13870363	-2.97329677	11.50652878	6.40457566	-2.77982323	10.63972334
7041	70.40000000	7.47854149	3.17041600	5.47086181	11.00121744	-1.99321886	3.48031060	13.98716496	-2.67996830	-0.13047023	9.20178601	-2.40446104	3.46752059	8.42221376	-8.67457638	-2.58753431	8.25576650	0.86286904	1.12406463	17.13838197	-4.89356530	10.25992887	6.49233018	1.02444909	10.91051559
7042	70.41000000	6.97550745	3.99817854	5.25597307	10.59441065	-0.93501321	3.19394213	11.88980086	2.36457117	-0.77747751	9.49637083	-2.53687153	2.46844457	8.65152213	-9.72606987	-1.64122432	7.70583778	1.06651472	0.43985137	17.47477672	-5.44646452	9.49372374	7.02192175	2.93096022	10.41416917
7043	70.42000000	7.17806344	4.48879884	5.30013630	9.79619974	-0.35361044	3.24437127	9.33991888	7.33132453	-1.42155183	10.26384317	-2.05635271	1.16530165	9.16194209	-5.04837956	-2.30457168	8.60923627	0.39774557	-0.57532436	17.00020125	-5.23903361	9.27902329	6.17102371	3.23204904	10.40237272
7044	70.43000000	7.85180690	4.51130774	5.63988325	8.80793330	-0.40335316	3.16282493	7.12854689	10.29082715	-1.34653002	11.11353809	-1.74620952	1.55176098	9.36142661	-1.50438509	-2.89010108	9.45738215	-1.07036835	-2.06817142	14.54888903	-3.76542580	8.04749836	5.44755442	3.94488613	11.20510470
7045	70.44000000	8.78172593	4.17246233	6.03127420	8.38654908	-0.93106491	3.05211777	5.81044234	12.65870922	-2.16763834	11.80064883	-2.08994359	2.70486419	9.60582107	-1.83956935	-1.89482363	9.90452039	-2.60091177	-2.93176496	10.04854817	-2.01636022	16.06655175	5.07227924	4.03692506	11.32311321
7046	70.45000000	9.70948010	3.63634307	6.41025056	8.93666149	-1.74440082	3.17391775	5.01405329	14.49329583	-3.71196174	12.26422322	-2.78724310	3.38431314	10.07362822	-3.52441398	-1.89873177	9.98179442	-3.29499829	-2.63809486	7.97302646	-5.26471509	24.41444051	5.04768201	3.23647314	11.22217120
7047	70.46000000	10.23607866	3.19015003	6.79242894	9.93540507	-2.55280191	3.48317298	4.02164816	13.10869721	-3.88120245	12.60361740	-2.90710951	3.58512761	10.31757441	-4.02420044	-1.66618941	9.91018220	-2.71024507	-2.00936010	2.09773041	-8.55270650	21.14126957	5.14148811	2.38718678	11.15938237
7048	70.47000000	10.50707349	3.00926330	6.93410743	10.91121995	-2.94882441	3.62474595	3.10411472	8.43044974	-1.03194375	12.67959155	-2.89823713	3.58831868	10.24919212	-2.63113650	-0.81401347	9.71596868	-1.76483356	-1.57264124	-2.48309376	-7.17863952	18.40338702	5.13898391	2.09751500	11.17355930
7049	70.48000000	10.82754588	2.76247027	6.81801070	11.76141760	-3.11629120	3.72842583	2.75617347	4.32483901	1.70332413	12.18621352	-2.98299810	4.12913093	9.91528947	-1.35146258	-0.38631923	9.71281097	-1.37862096	-0.98885305	-1.67336597	-6.95178481	17.21082150	4.79937650	2.26302935	11.10068766
7050	70.49000000	10.85898525	2.47427637	6.75679175	12.02042952	-2.89591305	3.75721411	2.84213476	2.67050388	0.88493671	11.47643350	-2.47483148	5.01152198	9.96646275	-1.65590233	-0.82020235	10.03226418	-1.40567509	-0.45190905	-4.51450671	-5.88243412	15.05030136	4.67945184	2.08882911	11.15549657
7051	70.50000000	10.56073588	2.32690711	6.69375979	11.68304544	-2.42013263	3.58676297	2.77970097	2.16559585	-0.10548919	10.94456875	-1.90995598	5.44461638	10.16092955	-2.89984046	-1.14328973	10.22848094	-1.74909254	-0.11896612	-4.39716827	-4.96498872	13.26252058	4.74593462	1.92674983	11.25985582
7052	70.51000000	10.10592962	2.07178432	6.62619510	11.16999983	-2.16428608	3.47513100	1.96380711	1.93611385	0.82451569	10.27599040	-2.06263209	5.21545125	10.17112882	-3.81012117	-1.04935373	10.25554507	-1.81405738	-0.03923934	-3.13015484	-4.52682124	12.35354521	4.72375528	2.04370518	11.26052541
7053	70.52000000	9.70515551	1.82220449	6.60095117	10.79008222	-2.05140306	3.29872628	0.73391187	2.22117588	1.79593893	9.12632206	-2.50215478	4.77289574	9.90798129	-3.82951061	-1.12375010	10.21447228	-1.17738732	-0.38428750	-2.61259664	-3.21079607	11.23077386	4.59227800	2.10593009	11.30653703
7054	70.53000000	9.32582095	1.80564297	6.56679958	10.41616227	-1.94127982	3.12157238	0.58402506	2.62405350	1.61465822	8.19220326	-2.81275091	4.28924978	9.68651303	-3.17151604	-1.01080299	10.13522393	-0.54916198	-0.67339501	-0.89198512	-2.46369888	10.64589449	4.92369347	2.19052873	11.12446061
7055	70.54000000	8.75029894	2.09617988	6.50676415	9.90975069	-2.02065516	2.95469219	1.88370851	2.69341826	1.57642395	7.98972403	-2.96509044	3.76373600	9.71362421	-2.60633951	-0.88752205	9.83614661	-0.02687628	-0.90712133	0.64187198	-1.92864793	10.31292130	5.15135362	2.21932337	10.89848668
7056	70.55000000	8.25782105	2.51477277	6.34708220	9.43239896	-2.15549842	2.72595160	3.34589662	3.19092883	1.28462273	7.98230336	-2.92110906	3.58440146	9.56869252	-2.52378093	-0.89734931	9.58793864	0.17346035	-0.91682644	2.44578043	-1.74143989	10.29213205	5.06567067	2.26943355	10.85886981
7057	70.56000000	8.08726199	2.71963140	6.18666191	9.02415671	-1.99926717	2.48122205	4.44879062	4.56210176	0.69450501	7.84249465	-2.69321756	3.79390717	9.39555671	-2.60820453	-0.85946509	9.39500647	0.22079539	-0.82845880	4.18393754	-1.50340236	10.58691176	5.06066809	2.36128156	10.94474821
